<?xml version="1.0" encoding="UTF-8" standalone="no"?>
<!--
File Renamer
https://github.com/mcarlos101/file-renamer
-->
<svg
   width="128"
   height="128"
   viewBox="0 0 128 128"
   version="1.1"
   id="svg1"
   inkscape:version="1.4 (e7c3feb100, 2024-10-09)"
   sodipodi:docname="file-renamer.svg"
   inkscape:export-xdpi="96"
   inkscape:export-ydpi="96"
   xmlns:inkscape="http://www.inkscape.org/namespaces/inkscape"
   xmlns:sodipodi="http://sodipodi.sourceforge.net/DTD/sodipodi-0.dtd"
   xmlns="http://www.w3.org/2000/svg"
   xmlns:svg="http://www.w3.org/2000/svg"
   xmlns:rdf="http://www.w3.org/1999/02/22-rdf-syntax-ns#"
   xmlns:cc="http://creativecommons.org/ns#"
   xmlns:dc="http://purl.org/dc/elements/1.1/">
  <title
     id="title1">File Renamer</title>
  <sodipodi:namedview
     id="namedview1"
     pagecolor="#ffffff"
     bordercolor="#000000"
     borderopacity="0.25"
     inkscape:showpageshadow="2"
     inkscape:pageopacity="0.0"
     inkscape:pagecheckerboard="0"
     inkscape:deskcolor="#d1d1d1"
     inkscape:document-units="px"
     inkscape:zoom="2"
     inkscape:cx="60"
     inkscape:cy="60.25"
     inkscape:window-width="1360"
     inkscape:window-height="740"
     inkscape:window-x="0"
     inkscape:window-y="0"
     inkscape:window-maximized="1"
     inkscape:current-layer="layer3"
     showgrid="false" />
  <defs
     id="defs1" />
  <g
     inkscape:label="BG"
     inkscape:groupmode="layer"
     id="layer1"
     sodipodi:insensitive="true" />
  <g
     inkscape:groupmode="layer"
     id="layer2"
     inkscape:label="F"
     sodipodi:insensitive="true" />
  <g
     inkscape:groupmode="layer"
     id="layer3"
     inkscape:label="R"
     sodipodi:insensitive="true">
    <g
       id="g1"
       sodipodi:insensitive="true">
      <path
         id="rect1"
         style="opacity:1;fill:#0080ff;stroke-width:2.17307"
         d="M 9.8666666,6 H 118.13333 C 120.27547,6 122,7.7245333 122,9.8666666 V 118.13333 C 122,120.27547 120.27547,122 118.13333,122 H 9.8666666 C 7.7245333,122 6,120.27547 6,118.13333 V 9.8666666 C 6,7.7245333 7.7245333,6 9.8666666,6 Z"
         sodipodi:insensitive="true" />
      <path
         d="M 26.924,81.5 38.098,28.664 H 67.476 L 65.552,37.84 H 47.2 L 44.314,51.456 H 61.408 L 59.41,60.632 H 42.316 L 37.95,81.5 Z"
         id="text1"
         style="font-style:italic;font-weight:bold;font-size:74px;font-family:Sans;-inkscape-font-specification:'Sans Bold Italic';fill:#ffffff;stroke-width:2.248"
         aria-label="F"
         sodipodi:insensitive="true" />
      <path
         d="M 58.924,103 70.098,50.164 h 12.95 q 7.918,0 12.506,3.404 4.662,3.404 4.662,11.1 0,6.29 -3.33,10.286 -3.256,3.922 -8.288,5.624 L 97.996,103 H 86.008 L 78.534,82.724 H 74.242 L 69.95,103 Z M 78.978,73.622 q 4.736,0 7.326,-2.072 2.664,-2.072 2.664,-6.29 0,-5.92 -7.104,-5.92 H 79.2 l -3.034,14.282 z"
         id="text2"
         style="font-style:italic;font-weight:bold;font-size:74px;font-family:Sans;-inkscape-font-specification:'Sans Bold Italic';fill:#ffffff;stroke-width:2.248"
         inkscape:label="text1"
         aria-label="R"
         sodipodi:insensitive="true" />
    </g>
  </g>
  <metadata
     id="metadata1">
    <rdf:RDF>
      <cc:Work
         rdf:about="">
        <dc:title>File Renamer</dc:title>
        <dc:date>2024-11-02</dc:date>
        <dc:creator>
          <cc:Agent>
            <dc:title>Carlos</dc:title>
          </cc:Agent>
        </dc:creator>
        <dc:source>https://github.com/mcarlos101/file-renamer</dc:source>
        <dc:description>Rename files using a GUI desktop app</dc:description>
      </cc:Work>
    </rdf:RDF>
  </metadata>
</svg>
